<mxfile host="app.diagrams.net" modified="2024-03-23T17:49:03.311Z" agent="Mozilla/5.0 (Windows NT 10.0; Win64; x64) AppleWebKit/537.36 (KHTML, like Gecko) Chrome/122.0.0.0 Safari/537.36 Edg/122.0.0.0" etag="plGnFMlm22qh-rnT77NW" version="24.0.8" type="device">
  <diagram name="Page-1" id="MBHPYKy17HVOtmGYMLzS">
    <mxGraphModel dx="1097" dy="664" grid="1" gridSize="10" guides="1" tooltips="1" connect="1" arrows="1" fold="1" page="1" pageScale="1" pageWidth="827" pageHeight="1169" math="0" shadow="0">
      <root>
        <mxCell id="0" />
        <mxCell id="1" parent="0" />
        <mxCell id="ccjhY7MdGSrlTKmLWndg-8" value="" style="rounded=1;whiteSpace=wrap;html=1;fillColor=none;dashed=1;connectable=0;allowArrows=0;" vertex="1" parent="1">
          <mxGeometry x="50" y="440" width="960" height="500" as="geometry" />
        </mxCell>
        <mxCell id="ccjhY7MdGSrlTKmLWndg-1" value="" style="shape=hexagon;perimeter=hexagonPerimeter2;whiteSpace=wrap;html=1;fixedSize=1;fillColor=none;connectable=0;allowArrows=0;" vertex="1" parent="1">
          <mxGeometry x="70" y="470" width="900" height="450" as="geometry" />
        </mxCell>
        <mxCell id="ccjhY7MdGSrlTKmLWndg-2" value="" style="shape=hexagon;perimeter=hexagonPerimeter2;whiteSpace=wrap;html=1;fixedSize=1;fillColor=none;connectable=0;allowArrows=0;" vertex="1" parent="1">
          <mxGeometry x="240" y="520" width="530" height="360" as="geometry" />
        </mxCell>
        <mxCell id="ccjhY7MdGSrlTKmLWndg-3" value="PORT" style="text;html=1;align=center;verticalAlign=middle;resizable=0;points=[];autosize=1;strokeColor=none;fillColor=none;" vertex="1" parent="1">
          <mxGeometry x="495" y="520" width="60" height="30" as="geometry" />
        </mxCell>
        <mxCell id="ccjhY7MdGSrlTKmLWndg-5" value="" style="shape=hexagon;perimeter=hexagonPerimeter2;whiteSpace=wrap;html=1;fixedSize=1;fillColor=none;connectable=0;allowArrows=0;" vertex="1" parent="1">
          <mxGeometry x="380" y="600" width="200" height="160" as="geometry" />
        </mxCell>
        <mxCell id="ccjhY7MdGSrlTKmLWndg-6" value="DOMAINE" style="text;html=1;align=center;verticalAlign=middle;resizable=0;points=[];autosize=1;strokeColor=none;fillColor=none;" vertex="1" parent="1">
          <mxGeometry x="445" y="600" width="80" height="30" as="geometry" />
        </mxCell>
        <mxCell id="ccjhY7MdGSrlTKmLWndg-7" value="Adapter" style="text;html=1;align=center;verticalAlign=middle;resizable=0;points=[];autosize=1;strokeColor=none;fillColor=none;" vertex="1" parent="1">
          <mxGeometry x="395" y="480" width="70" height="30" as="geometry" />
        </mxCell>
        <mxCell id="ccjhY7MdGSrlTKmLWndg-49" style="edgeStyle=orthogonalEdgeStyle;rounded=0;orthogonalLoop=1;jettySize=auto;html=1;" edge="1" parent="1" source="ccjhY7MdGSrlTKmLWndg-10" target="ccjhY7MdGSrlTKmLWndg-34">
          <mxGeometry relative="1" as="geometry">
            <Array as="points">
              <mxPoint x="480" y="1120" />
            </Array>
          </mxGeometry>
        </mxCell>
        <mxCell id="ccjhY7MdGSrlTKmLWndg-53" value="Register" style="edgeLabel;html=1;align=center;verticalAlign=middle;resizable=0;points=[];" vertex="1" connectable="0" parent="ccjhY7MdGSrlTKmLWndg-49">
          <mxGeometry x="0.1534" y="1" relative="1" as="geometry">
            <mxPoint as="offset" />
          </mxGeometry>
        </mxCell>
        <mxCell id="ccjhY7MdGSrlTKmLWndg-10" value="order-service" style="shape=image;verticalLabelPosition=bottom;labelBackgroundColor=default;verticalAlign=top;aspect=fixed;imageAspect=0;image=https://upload.wikimedia.org/wikipedia/commons/thumb/4/44/Spring_Framework_Logo_2018.svg/2560px-Spring_Framework_Logo_2018.svg.png;" vertex="1" parent="1">
          <mxGeometry x="353.37" y="940" width="253.25" height="65" as="geometry" />
        </mxCell>
        <mxCell id="ccjhY7MdGSrlTKmLWndg-50" style="edgeStyle=orthogonalEdgeStyle;rounded=0;orthogonalLoop=1;jettySize=auto;html=1;" edge="1" parent="1" source="ccjhY7MdGSrlTKmLWndg-11" target="ccjhY7MdGSrlTKmLWndg-34">
          <mxGeometry relative="1" as="geometry">
            <Array as="points">
              <mxPoint x="1187" y="1123" />
            </Array>
          </mxGeometry>
        </mxCell>
        <mxCell id="ccjhY7MdGSrlTKmLWndg-52" value="Register" style="edgeLabel;html=1;align=center;verticalAlign=middle;resizable=0;points=[];" vertex="1" connectable="0" parent="ccjhY7MdGSrlTKmLWndg-50">
          <mxGeometry x="0.0841" y="4" relative="1" as="geometry">
            <mxPoint y="-7" as="offset" />
          </mxGeometry>
        </mxCell>
        <mxCell id="ccjhY7MdGSrlTKmLWndg-11" value="finance-service" style="shape=image;verticalLabelPosition=bottom;labelBackgroundColor=default;verticalAlign=top;aspect=fixed;imageAspect=0;image=https://upload.wikimedia.org/wikipedia/commons/thumb/4/44/Spring_Framework_Logo_2018.svg/2560px-Spring_Framework_Logo_2018.svg.png;" vertex="1" parent="1">
          <mxGeometry x="1060" y="940" width="253.25" height="65" as="geometry" />
        </mxCell>
        <mxCell id="ccjhY7MdGSrlTKmLWndg-12" value="Advisor" style="rounded=1;whiteSpace=wrap;html=1;" vertex="1" parent="1">
          <mxGeometry x="390" y="670" width="90" height="30" as="geometry" />
        </mxCell>
        <mxCell id="ccjhY7MdGSrlTKmLWndg-13" value="Client" style="rounded=1;whiteSpace=wrap;html=1;" vertex="1" parent="1">
          <mxGeometry x="435" y="640" width="90" height="30" as="geometry" />
        </mxCell>
        <mxCell id="ccjhY7MdGSrlTKmLWndg-14" value="CreditOrder" style="rounded=1;whiteSpace=wrap;html=1;" vertex="1" parent="1">
          <mxGeometry x="435" y="700" width="90" height="30" as="geometry" />
        </mxCell>
        <mxCell id="ccjhY7MdGSrlTKmLWndg-15" value="StatusHistory" style="rounded=1;whiteSpace=wrap;html=1;" vertex="1" parent="1">
          <mxGeometry x="480" y="670" width="90" height="30" as="geometry" />
        </mxCell>
        <mxCell id="ccjhY7MdGSrlTKmLWndg-16" value="AdvisorPersistance" style="rounded=1;whiteSpace=wrap;html=1;" vertex="1" parent="1">
          <mxGeometry x="570" y="540" width="120" height="40" as="geometry" />
        </mxCell>
        <mxCell id="ccjhY7MdGSrlTKmLWndg-17" value="ClientPersistance" style="rounded=1;whiteSpace=wrap;html=1;" vertex="1" parent="1">
          <mxGeometry x="600" y="580" width="120" height="40" as="geometry" />
        </mxCell>
        <mxCell id="ccjhY7MdGSrlTKmLWndg-18" value="CreditOrderPersistance" style="rounded=1;whiteSpace=wrap;html=1;" vertex="1" parent="1">
          <mxGeometry x="606.62" y="620" width="130" height="40" as="geometry" />
        </mxCell>
        <mxCell id="ccjhY7MdGSrlTKmLWndg-19" value="StatusHisotryPersistance" style="rounded=1;whiteSpace=wrap;html=1;" vertex="1" parent="1">
          <mxGeometry x="610" y="660" width="140" height="40" as="geometry" />
        </mxCell>
        <mxCell id="ccjhY7MdGSrlTKmLWndg-20" value="FinanceClient" style="rounded=1;whiteSpace=wrap;html=1;" vertex="1" parent="1">
          <mxGeometry x="580" y="800" width="140" height="40" as="geometry" />
        </mxCell>
        <mxCell id="ccjhY7MdGSrlTKmLWndg-35" value="Implement" style="edgeStyle=orthogonalEdgeStyle;rounded=0;orthogonalLoop=1;jettySize=auto;html=1;" edge="1" parent="1" source="ccjhY7MdGSrlTKmLWndg-23" target="ccjhY7MdGSrlTKmLWndg-16">
          <mxGeometry relative="1" as="geometry" />
        </mxCell>
        <mxCell id="ccjhY7MdGSrlTKmLWndg-23" value="AdvisorRespository" style="rounded=1;whiteSpace=wrap;html=1;" vertex="1" parent="1">
          <mxGeometry x="774.12" y="480" width="120" height="40" as="geometry" />
        </mxCell>
        <mxCell id="ccjhY7MdGSrlTKmLWndg-24" value="ClientRepository" style="rounded=1;whiteSpace=wrap;html=1;" vertex="1" parent="1">
          <mxGeometry x="790" y="520" width="120" height="40" as="geometry" />
        </mxCell>
        <mxCell id="ccjhY7MdGSrlTKmLWndg-25" value="CreditOrderRepository" style="rounded=1;whiteSpace=wrap;html=1;" vertex="1" parent="1">
          <mxGeometry x="796.62" y="560" width="130" height="40" as="geometry" />
        </mxCell>
        <mxCell id="ccjhY7MdGSrlTKmLWndg-26" value="StatusHisotryRepository" style="rounded=1;whiteSpace=wrap;html=1;" vertex="1" parent="1">
          <mxGeometry x="800" y="600" width="140" height="40" as="geometry" />
        </mxCell>
        <mxCell id="ccjhY7MdGSrlTKmLWndg-27" value="RateService" style="rounded=1;whiteSpace=wrap;html=1;" vertex="1" parent="1">
          <mxGeometry x="274" y="560" width="106" height="40" as="geometry" />
        </mxCell>
        <mxCell id="ccjhY7MdGSrlTKmLWndg-28" value="CreditOrderService" style="rounded=1;whiteSpace=wrap;html=1;" vertex="1" parent="1">
          <mxGeometry x="260" y="680" width="106" height="40" as="geometry" />
        </mxCell>
        <mxCell id="ccjhY7MdGSrlTKmLWndg-29" value="AdvisorService" style="rounded=1;whiteSpace=wrap;html=1;" vertex="1" parent="1">
          <mxGeometry x="274" y="780" width="106" height="40" as="geometry" />
        </mxCell>
        <mxCell id="ccjhY7MdGSrlTKmLWndg-30" value="DomainRateService" style="rounded=1;whiteSpace=wrap;html=1;" vertex="1" parent="1">
          <mxGeometry x="105" y="515" width="120" height="45" as="geometry" />
        </mxCell>
        <mxCell id="ccjhY7MdGSrlTKmLWndg-31" value="DomainCreditOrderService" style="rounded=1;whiteSpace=wrap;html=1;" vertex="1" parent="1">
          <mxGeometry x="80" y="675" width="160" height="55" as="geometry" />
        </mxCell>
        <mxCell id="ccjhY7MdGSrlTKmLWndg-32" value="DomainAdvisorService" style="rounded=1;whiteSpace=wrap;html=1;" vertex="1" parent="1">
          <mxGeometry x="100" y="775" width="130" height="55" as="geometry" />
        </mxCell>
        <mxCell id="ccjhY7MdGSrlTKmLWndg-33" value="FinanceClientImpl" style="rounded=1;whiteSpace=wrap;html=1;" vertex="1" parent="1">
          <mxGeometry x="796.62" y="850" width="140" height="40" as="geometry" />
        </mxCell>
        <mxCell id="ccjhY7MdGSrlTKmLWndg-34" value="" style="shape=image;verticalLabelPosition=bottom;labelBackgroundColor=default;verticalAlign=top;aspect=fixed;imageAspect=0;image=https://www.svgrepo.com/show/448216/consul.svg;" vertex="1" parent="1">
          <mxGeometry x="829.12" y="1090" width="65" height="65" as="geometry" />
        </mxCell>
        <mxCell id="ccjhY7MdGSrlTKmLWndg-36" value="Implement" style="edgeStyle=orthogonalEdgeStyle;rounded=0;orthogonalLoop=1;jettySize=auto;html=1;" edge="1" parent="1" source="ccjhY7MdGSrlTKmLWndg-24" target="ccjhY7MdGSrlTKmLWndg-17">
          <mxGeometry relative="1" as="geometry">
            <mxPoint x="784" y="510" as="sourcePoint" />
            <mxPoint x="640" y="550" as="targetPoint" />
            <Array as="points">
              <mxPoint x="740" y="540" />
              <mxPoint x="740" y="590" />
            </Array>
          </mxGeometry>
        </mxCell>
        <mxCell id="ccjhY7MdGSrlTKmLWndg-37" value="Implement" style="edgeStyle=orthogonalEdgeStyle;rounded=0;orthogonalLoop=1;jettySize=auto;html=1;" edge="1" parent="1" source="ccjhY7MdGSrlTKmLWndg-25" target="ccjhY7MdGSrlTKmLWndg-18">
          <mxGeometry relative="1" as="geometry">
            <mxPoint x="800" y="550" as="sourcePoint" />
            <mxPoint x="730" y="600" as="targetPoint" />
            <Array as="points">
              <mxPoint x="770" y="580" />
              <mxPoint x="770" y="640" />
            </Array>
          </mxGeometry>
        </mxCell>
        <mxCell id="ccjhY7MdGSrlTKmLWndg-38" value="Implement" style="edgeStyle=orthogonalEdgeStyle;rounded=0;orthogonalLoop=1;jettySize=auto;html=1;" edge="1" parent="1" source="ccjhY7MdGSrlTKmLWndg-26" target="ccjhY7MdGSrlTKmLWndg-19">
          <mxGeometry relative="1" as="geometry">
            <mxPoint x="807" y="590" as="sourcePoint" />
            <mxPoint x="747" y="650" as="targetPoint" />
            <Array as="points">
              <mxPoint x="870" y="680" />
            </Array>
          </mxGeometry>
        </mxCell>
        <mxCell id="ccjhY7MdGSrlTKmLWndg-39" value="" style="shape=image;verticalLabelPosition=bottom;labelBackgroundColor=default;verticalAlign=top;aspect=fixed;imageAspect=0;image=https://upload.wikimedia.org/wikipedia/commons/thumb/b/ba/Database-postgres.svg/1200px-Database-postgres.svg.png;" vertex="1" parent="1">
          <mxGeometry x="1050" y="445" width="45.99" height="65" as="geometry" />
        </mxCell>
        <mxCell id="ccjhY7MdGSrlTKmLWndg-40" value="Call" style="edgeStyle=orthogonalEdgeStyle;rounded=0;orthogonalLoop=1;jettySize=auto;html=1;" edge="1" parent="1" source="ccjhY7MdGSrlTKmLWndg-23" target="ccjhY7MdGSrlTKmLWndg-39">
          <mxGeometry relative="1" as="geometry">
            <mxPoint x="784" y="510" as="sourcePoint" />
            <mxPoint x="1140" y="490" as="targetPoint" />
            <Array as="points">
              <mxPoint x="970" y="500" />
              <mxPoint x="970" y="477" />
            </Array>
          </mxGeometry>
        </mxCell>
        <mxCell id="ccjhY7MdGSrlTKmLWndg-41" value="Call" style="edgeStyle=orthogonalEdgeStyle;rounded=0;orthogonalLoop=1;jettySize=auto;html=1;" edge="1" parent="1" source="ccjhY7MdGSrlTKmLWndg-24">
          <mxGeometry relative="1" as="geometry">
            <mxPoint x="904" y="510" as="sourcePoint" />
            <mxPoint x="1060" y="487" as="targetPoint" />
            <Array as="points">
              <mxPoint x="1020" y="550" />
              <mxPoint x="1020" y="487" />
            </Array>
          </mxGeometry>
        </mxCell>
        <mxCell id="ccjhY7MdGSrlTKmLWndg-42" value="Call" style="edgeStyle=orthogonalEdgeStyle;rounded=0;orthogonalLoop=1;jettySize=auto;html=1;" edge="1" parent="1" source="ccjhY7MdGSrlTKmLWndg-25" target="ccjhY7MdGSrlTKmLWndg-39">
          <mxGeometry relative="1" as="geometry">
            <mxPoint x="920" y="560" as="sourcePoint" />
            <mxPoint x="1070" y="497" as="targetPoint" />
            <Array as="points">
              <mxPoint x="1060" y="580" />
            </Array>
          </mxGeometry>
        </mxCell>
        <mxCell id="ccjhY7MdGSrlTKmLWndg-43" value="Call" style="edgeStyle=orthogonalEdgeStyle;rounded=0;orthogonalLoop=1;jettySize=auto;html=1;" edge="1" parent="1" source="ccjhY7MdGSrlTKmLWndg-26" target="ccjhY7MdGSrlTKmLWndg-39">
          <mxGeometry relative="1" as="geometry">
            <mxPoint x="937" y="590" as="sourcePoint" />
            <mxPoint x="1083" y="520" as="targetPoint" />
            <Array as="points">
              <mxPoint x="1083" y="620" />
            </Array>
          </mxGeometry>
        </mxCell>
        <mxCell id="ccjhY7MdGSrlTKmLWndg-44" value="Implement" style="edgeStyle=orthogonalEdgeStyle;rounded=0;orthogonalLoop=1;jettySize=auto;html=1;" edge="1" parent="1" source="ccjhY7MdGSrlTKmLWndg-33" target="ccjhY7MdGSrlTKmLWndg-20">
          <mxGeometry relative="1" as="geometry">
            <mxPoint x="880" y="650" as="sourcePoint" />
            <mxPoint x="760" y="690" as="targetPoint" />
            <Array as="points">
              <mxPoint x="860" y="820" />
            </Array>
          </mxGeometry>
        </mxCell>
        <mxCell id="ccjhY7MdGSrlTKmLWndg-45" value="Call" style="edgeStyle=orthogonalEdgeStyle;rounded=0;orthogonalLoop=1;jettySize=auto;html=1;" edge="1" parent="1" source="ccjhY7MdGSrlTKmLWndg-33" target="ccjhY7MdGSrlTKmLWndg-11">
          <mxGeometry relative="1" as="geometry">
            <mxPoint x="936.62" y="870" as="sourcePoint" />
            <mxPoint x="1079.62" y="760" as="targetPoint" />
            <Array as="points">
              <mxPoint x="1187" y="870" />
            </Array>
          </mxGeometry>
        </mxCell>
        <mxCell id="ccjhY7MdGSrlTKmLWndg-46" value="Implement" style="edgeStyle=orthogonalEdgeStyle;rounded=0;orthogonalLoop=1;jettySize=auto;html=1;" edge="1" parent="1" source="ccjhY7MdGSrlTKmLWndg-30" target="ccjhY7MdGSrlTKmLWndg-27">
          <mxGeometry relative="1" as="geometry">
            <mxPoint x="334" y="500" as="sourcePoint" />
            <mxPoint x="190" y="540" as="targetPoint" />
          </mxGeometry>
        </mxCell>
        <mxCell id="ccjhY7MdGSrlTKmLWndg-47" value="Implement" style="edgeStyle=orthogonalEdgeStyle;rounded=0;orthogonalLoop=1;jettySize=auto;html=1;" edge="1" parent="1" source="ccjhY7MdGSrlTKmLWndg-31" target="ccjhY7MdGSrlTKmLWndg-28">
          <mxGeometry relative="1" as="geometry">
            <mxPoint x="235" y="547" as="sourcePoint" />
            <mxPoint x="284" y="590" as="targetPoint" />
            <Array as="points">
              <mxPoint x="160" y="640" />
              <mxPoint x="320" y="640" />
            </Array>
          </mxGeometry>
        </mxCell>
        <mxCell id="ccjhY7MdGSrlTKmLWndg-48" value="Implement" style="edgeStyle=orthogonalEdgeStyle;rounded=0;orthogonalLoop=1;jettySize=auto;html=1;" edge="1" parent="1" source="ccjhY7MdGSrlTKmLWndg-32" target="ccjhY7MdGSrlTKmLWndg-29">
          <mxGeometry relative="1" as="geometry">
            <mxPoint x="170" y="685" as="sourcePoint" />
            <mxPoint x="330" y="690" as="targetPoint" />
            <Array as="points">
              <mxPoint x="170" y="850" />
              <mxPoint x="330" y="850" />
            </Array>
          </mxGeometry>
        </mxCell>
      </root>
    </mxGraphModel>
  </diagram>
</mxfile>
